<svg width="76" height="77" viewBox="0 0 76 77" fill="none" xmlns="http://www.w3.org/2000/svg">
<path d="M37.7936 61.8596C50.675 61.8596 61.1174 51.4171 61.1174 38.5357C61.1174 25.6543 50.675 15.2119 37.7936 15.2119C24.9122 15.2119 14.4697 25.6543 14.4697 38.5357C14.4697 51.4171 24.9122 61.8596 37.7936 61.8596Z" fill="url(#paint0_linear_701_128)"/>
<path d="M37.7936 61.8596C50.675 61.8596 61.1174 51.4171 61.1174 38.5357C61.1174 25.6543 50.675 15.2119 37.7936 15.2119C24.9122 15.2119 14.4697 25.6543 14.4697 38.5357C14.4697 51.4171 24.9122 61.8596 37.7936 61.8596Z" fill="url(#paint1_linear_701_128)"/>
<path d="M14.4697 38.5349C14.4697 51.4039 24.9029 61.8587 37.7936 61.8587C50.6626 61.8587 61.1174 51.4255 61.1174 38.5349C61.1174 36.8535 60.9449 35.2152 60.6 33.6416H14.9871C14.6422 35.2152 14.4697 36.8535 14.4697 38.5349Z" fill="url(#paint2_linear_701_128)"/>
<path d="M37.7917 61.8381C50.6608 61.8381 61.1155 51.4049 61.1155 38.5143C61.1155 25.6452 50.6823 15.1904 37.7917 15.1904C36.1103 15.1904 34.472 15.3629 32.8984 15.7078V61.3207C34.472 61.6656 36.1103 61.8381 37.7917 61.8381Z" fill="url(#paint3_linear_701_128)"/>
<path d="M21.3023 55.0274C30.399 64.1242 45.165 64.1242 54.2833 55.0274C63.38 45.9307 63.38 31.1647 54.2833 22.0464C53.0977 20.8608 51.8043 19.8261 50.4678 18.9639L18.2197 51.1904C19.082 52.5485 20.1167 53.8418 21.3023 55.0274Z" fill="url(#paint4_linear_701_128)"/>
<path d="M37.7917 0.963867C39.1928 0.963867 40.3353 2.10635 40.3353 3.5075V8.93967C40.3353 10.3408 39.1928 11.4833 37.7917 11.4833C36.3905 11.4833 35.248 10.3408 35.248 8.93967V3.5075C35.248 2.10635 36.3905 0.963867 37.7917 0.963867Z" fill="url(#paint5_linear_701_128)"/>
<path d="M37.7917 65.5381C39.1928 65.5381 40.3353 66.6806 40.3353 68.0817V73.5139C40.3353 74.915 39.1928 76.0575 37.7917 76.0575C36.3905 76.0575 35.248 74.915 35.248 73.5139V68.0817C35.248 66.6806 36.3905 65.5381 37.7917 65.5381Z" fill="url(#paint6_linear_701_128)"/>
<path d="M75.3427 38.5368C75.3427 39.9379 74.2002 41.0804 72.799 41.0804H67.3669C65.9657 41.0804 64.8232 39.9379 64.8232 38.5368C64.8232 37.1356 65.9657 35.9932 67.3669 35.9932H72.799C74.2002 35.9932 75.3427 37.1356 75.3427 38.5368Z" fill="url(#paint7_linear_701_128)"/>
<path d="M10.8837 38.5368C10.8837 39.9379 9.74122 41.0804 8.34006 41.0804H2.90789C1.50674 41.0804 0.364258 39.9379 0.364258 38.5368C0.364258 37.1356 1.50674 35.9932 2.90789 35.9932H8.34006C9.74122 35.9932 10.8837 37.1356 10.8837 38.5368Z" fill="url(#paint8_linear_701_128)"/>
<path d="M18.6728 19.415C17.6812 20.4065 16.0645 20.4065 15.0729 19.415L11.2359 15.578C10.2443 14.5864 10.2443 12.9697 11.2359 11.9781C12.2275 10.9865 13.8442 10.9865 14.8358 11.9781L18.6728 15.8151C19.6644 16.8067 19.6644 18.4234 18.6728 19.415Z" fill="url(#paint9_linear_701_128)"/>
<path d="M64.3505 65.0732C63.3589 66.0648 61.7422 66.0648 60.7506 65.0732L56.9136 61.2362C55.922 60.2446 55.922 58.6279 56.9136 57.6363C57.9052 56.6447 59.5219 56.6447 60.5135 57.6363L64.3505 61.4733C65.3421 62.4864 65.3421 64.0816 64.3505 65.0732Z" fill="url(#paint10_linear_701_128)"/>
<path d="M64.3505 11.9781C65.3421 12.9697 65.3421 14.5864 64.3505 15.578L60.5135 19.415C59.5219 20.4065 57.9052 20.4065 56.9136 19.415C55.922 18.4234 55.922 16.8067 56.9136 15.8151L60.7506 11.9781C61.7422 10.9865 63.3589 10.9865 64.3505 11.9781Z" fill="url(#paint11_linear_701_128)"/>
<path d="M18.6728 57.7495C19.6644 58.7411 19.6644 60.3579 18.6728 61.3494L14.8358 65.1864C13.8442 66.178 12.2275 66.178 11.2359 65.1864C10.2443 64.1949 10.2443 62.5781 11.2359 61.5866L15.0729 57.7495C16.0645 56.758 17.6812 56.758 18.6728 57.7495Z" fill="url(#paint12_linear_701_128)"/>
<defs>
<linearGradient id="paint0_linear_701_128" x1="22.8318" y1="23.568" x2="51.6993" y2="52.4354" gradientUnits="userSpaceOnUse">
<stop stop-color="#FEF0AE"/>
<stop offset="0.147" stop-color="#FDEEA9"/>
<stop offset="0.299" stop-color="#FDEB9D"/>
<stop offset="0.453" stop-color="#FDE688"/>
<stop offset="0.609" stop-color="#FCDF6B"/>
<stop offset="0.767" stop-color="#FBD646"/>
<stop offset="0.923" stop-color="#FACC18"/>
<stop offset="1" stop-color="#FAC600"/>
</linearGradient>
<linearGradient id="paint1_linear_701_128" x1="39.7308" y1="37.0535" x2="23.2664" y2="49.5544" gradientUnits="userSpaceOnUse">
<stop stop-color="#FE9738" stop-opacity="0"/>
<stop offset="0.121" stop-color="#FE9738" stop-opacity="0.016"/>
<stop offset="0.246" stop-color="#FE9738" stop-opacity="0.065"/>
<stop offset="0.373" stop-color="#FE9738" stop-opacity="0.147"/>
<stop offset="0.502" stop-color="#FE9738" stop-opacity="0.262"/>
<stop offset="0.632" stop-color="#FE9738" stop-opacity="0.41"/>
<stop offset="0.762" stop-color="#FE9738" stop-opacity="0.59"/>
<stop offset="0.892" stop-color="#FE9738" stop-opacity="0.8"/>
<stop offset="1" stop-color="#FE9738"/>
</linearGradient>
<linearGradient id="paint2_linear_701_128" x1="37.7905" y1="42.1529" x2="37.7905" y2="63.4299" gradientUnits="userSpaceOnUse">
<stop stop-color="#FE9738" stop-opacity="0"/>
<stop offset="0.121" stop-color="#FE9738" stop-opacity="0.016"/>
<stop offset="0.246" stop-color="#FE9738" stop-opacity="0.065"/>
<stop offset="0.373" stop-color="#FE9738" stop-opacity="0.147"/>
<stop offset="0.502" stop-color="#FE9738" stop-opacity="0.262"/>
<stop offset="0.632" stop-color="#FE9738" stop-opacity="0.41"/>
<stop offset="0.762" stop-color="#FE9738" stop-opacity="0.59"/>
<stop offset="0.892" stop-color="#FE9738" stop-opacity="0.8"/>
<stop offset="1" stop-color="#FE9738"/>
</linearGradient>
<linearGradient id="paint3_linear_701_128" x1="41.4155" y1="38.527" x2="62.6928" y2="38.527" gradientUnits="userSpaceOnUse">
<stop stop-color="#FE9738" stop-opacity="0"/>
<stop offset="0.121" stop-color="#FE9738" stop-opacity="0.016"/>
<stop offset="0.246" stop-color="#FE9738" stop-opacity="0.065"/>
<stop offset="0.373" stop-color="#FE9738" stop-opacity="0.147"/>
<stop offset="0.502" stop-color="#FE9738" stop-opacity="0.262"/>
<stop offset="0.632" stop-color="#FE9738" stop-opacity="0.41"/>
<stop offset="0.762" stop-color="#FE9738" stop-opacity="0.59"/>
<stop offset="0.892" stop-color="#FE9738" stop-opacity="0.8"/>
<stop offset="1" stop-color="#FE9738"/>
</linearGradient>
<linearGradient id="paint4_linear_701_128" x1="47.8548" y1="48.5929" x2="55.8144" y2="56.5525" gradientUnits="userSpaceOnUse">
<stop stop-color="#F5FBFF" stop-opacity="0"/>
<stop offset="0.12" stop-color="#F5FBFF" stop-opacity="0.016"/>
<stop offset="0.245" stop-color="#F5FBFF" stop-opacity="0.065"/>
<stop offset="0.372" stop-color="#F5FBFF" stop-opacity="0.147"/>
<stop offset="0.501" stop-color="#F5FBFF" stop-opacity="0.261"/>
<stop offset="0.63" stop-color="#F5FBFF" stop-opacity="0.408"/>
<stop offset="0.761" stop-color="#F5FBFF" stop-opacity="0.588"/>
<stop offset="0.89" stop-color="#F5FBFF" stop-opacity="0.797"/>
<stop offset="1" stop-color="#F5FBFF"/>
</linearGradient>
<linearGradient id="paint5_linear_701_128" x1="35.8038" y1="6.23307" x2="39.6658" y2="6.23307" gradientUnits="userSpaceOnUse">
<stop stop-color="#FEF0AE"/>
<stop offset="0.147" stop-color="#FDEEA9"/>
<stop offset="0.299" stop-color="#FDEB9D"/>
<stop offset="0.453" stop-color="#FDE688"/>
<stop offset="0.609" stop-color="#FCDF6B"/>
<stop offset="0.767" stop-color="#FBD646"/>
<stop offset="0.923" stop-color="#FACC18"/>
<stop offset="1" stop-color="#FAC600"/>
</linearGradient>
<linearGradient id="paint6_linear_701_128" x1="35.8038" y1="70.8073" x2="39.6658" y2="70.8073" gradientUnits="userSpaceOnUse">
<stop stop-color="#FEF0AE"/>
<stop offset="0.147" stop-color="#FDEEA9"/>
<stop offset="0.299" stop-color="#FDEB9D"/>
<stop offset="0.453" stop-color="#FDE688"/>
<stop offset="0.609" stop-color="#FCDF6B"/>
<stop offset="0.767" stop-color="#FBD646"/>
<stop offset="0.923" stop-color="#FACC18"/>
<stop offset="1" stop-color="#FAC600"/>
</linearGradient>
<linearGradient id="paint7_linear_701_128" x1="70.0832" y1="36.5428" x2="70.0832" y2="40.4049" gradientUnits="userSpaceOnUse">
<stop stop-color="#FEF0AE"/>
<stop offset="0.147" stop-color="#FDEEA9"/>
<stop offset="0.299" stop-color="#FDEB9D"/>
<stop offset="0.453" stop-color="#FDE688"/>
<stop offset="0.609" stop-color="#FCDF6B"/>
<stop offset="0.767" stop-color="#FBD646"/>
<stop offset="0.923" stop-color="#FACC18"/>
<stop offset="1" stop-color="#FAC600"/>
</linearGradient>
<linearGradient id="paint8_linear_701_128" x1="5.62419" y1="36.5428" x2="5.62419" y2="40.4049" gradientUnits="userSpaceOnUse">
<stop stop-color="#FEF0AE"/>
<stop offset="0.147" stop-color="#FDEEA9"/>
<stop offset="0.299" stop-color="#FDEB9D"/>
<stop offset="0.453" stop-color="#FDE688"/>
<stop offset="0.609" stop-color="#FCDF6B"/>
<stop offset="0.767" stop-color="#FBD646"/>
<stop offset="0.923" stop-color="#FACC18"/>
<stop offset="1" stop-color="#FAC600"/>
</linearGradient>
<linearGradient id="paint9_linear_701_128" x1="16.3756" y1="14.2863" x2="13.6448" y2="17.0171" gradientUnits="userSpaceOnUse">
<stop stop-color="#FEF0AE"/>
<stop offset="0.147" stop-color="#FDEEA9"/>
<stop offset="0.299" stop-color="#FDEB9D"/>
<stop offset="0.453" stop-color="#FDE688"/>
<stop offset="0.609" stop-color="#FCDF6B"/>
<stop offset="0.767" stop-color="#FBD646"/>
<stop offset="0.923" stop-color="#FACC18"/>
<stop offset="1" stop-color="#FAC600"/>
</linearGradient>
<linearGradient id="paint10_linear_701_128" x1="62.047" y1="59.9597" x2="59.3161" y2="62.6905" gradientUnits="userSpaceOnUse">
<stop stop-color="#FEF0AE"/>
<stop offset="0.147" stop-color="#FDEEA9"/>
<stop offset="0.299" stop-color="#FDEB9D"/>
<stop offset="0.453" stop-color="#FDE688"/>
<stop offset="0.609" stop-color="#FCDF6B"/>
<stop offset="0.767" stop-color="#FBD646"/>
<stop offset="0.923" stop-color="#FACC18"/>
<stop offset="1" stop-color="#FAC600"/>
</linearGradient>
<linearGradient id="paint11_linear_701_128" x1="59.2139" y1="14.2983" x2="61.9447" y2="17.0292" gradientUnits="userSpaceOnUse">
<stop stop-color="#FEF0AE"/>
<stop offset="0.147" stop-color="#FDEEA9"/>
<stop offset="0.299" stop-color="#FDEB9D"/>
<stop offset="0.453" stop-color="#FDE688"/>
<stop offset="0.609" stop-color="#FCDF6B"/>
<stop offset="0.767" stop-color="#FBD646"/>
<stop offset="0.923" stop-color="#FACC18"/>
<stop offset="1" stop-color="#FAC600"/>
</linearGradient>
<linearGradient id="paint12_linear_701_128" x1="13.5361" y1="60.0698" x2="16.267" y2="62.8007" gradientUnits="userSpaceOnUse">
<stop stop-color="#FEF0AE"/>
<stop offset="0.147" stop-color="#FDEEA9"/>
<stop offset="0.299" stop-color="#FDEB9D"/>
<stop offset="0.453" stop-color="#FDE688"/>
<stop offset="0.609" stop-color="#FCDF6B"/>
<stop offset="0.767" stop-color="#FBD646"/>
<stop offset="0.923" stop-color="#FACC18"/>
<stop offset="1" stop-color="#FAC600"/>
</linearGradient>
</defs>
</svg>
