<svg width="84" height="75" viewBox="0 0 84 75" fill="none" xmlns="http://www.w3.org/2000/svg">
<path d="M50.8727 52.8782C61.9904 52.8782 71.0032 43.8654 71.0032 32.7477C71.0032 21.6299 61.9904 12.6172 50.8727 12.6172C39.7549 12.6172 30.7422 21.6299 30.7422 32.7477C30.7422 43.8654 39.7549 52.8782 50.8727 52.8782Z" fill="url(#paint0_linear_701_17)"/>
<path d="M50.8727 52.8782C61.9904 52.8782 71.0032 43.8654 71.0032 32.7477C71.0032 21.6299 61.9904 12.6172 50.8727 12.6172C39.7549 12.6172 30.7422 21.6299 30.7422 32.7477C30.7422 43.8654 39.7549 52.8782 50.8727 52.8782Z" fill="url(#paint1_linear_701_17)"/>
<path d="M30.7422 32.7487C30.7422 43.8558 39.7469 52.8792 50.8727 52.8792C61.9798 52.8792 71.0032 43.8744 71.0032 32.7487C71.0032 31.2975 70.8543 29.8835 70.5566 28.5254H31.1887C30.891 29.8835 30.7422 31.2975 30.7422 32.7487Z" fill="url(#paint2_linear_701_17)"/>
<path d="M50.8737 52.8596C61.9808 52.8596 71.0042 43.8548 71.0042 32.7291C71.0042 21.622 61.9994 12.5986 50.8737 12.5986C49.4225 12.5986 48.0085 12.7475 46.6504 13.0452V52.4131C48.0085 52.7108 49.4225 52.8596 50.8737 52.8596Z" fill="url(#paint3_linear_701_17)"/>
<path d="M36.64 46.9814C44.4912 54.8327 57.2356 54.8327 65.1055 46.9814C72.9567 39.1302 72.9567 26.3858 65.1055 18.516C64.0822 17.4927 62.9659 16.5997 61.8124 15.8555L33.9795 43.6698C34.7237 44.8419 35.6167 45.9582 36.64 46.9814Z" fill="url(#paint4_linear_701_17)"/>
<path d="M50.8721 0.319336C52.0814 0.319336 53.0675 1.30539 53.0675 2.51471V7.20314C53.0675 8.41246 52.0814 9.39852 50.8721 9.39852C49.6628 9.39852 48.6768 8.41246 48.6768 7.20314V2.51471C48.6768 1.30539 49.6628 0.319336 50.8721 0.319336Z" fill="url(#paint5_linear_701_17)"/>
<path d="M83.2813 32.7491C83.2813 33.9584 82.2953 34.9445 81.086 34.9445H76.3975C75.1882 34.9445 74.2021 33.9584 74.2021 32.7491C74.2021 31.5398 75.1882 30.5537 76.3975 30.5537H81.086C82.2953 30.5537 83.2813 31.5398 83.2813 32.7491Z" fill="url(#paint6_linear_701_17)"/>
<path d="M34.3701 16.2451C33.5143 17.1009 32.1189 17.1009 31.2631 16.2451L27.9514 12.9335C27.0956 12.0776 27.0956 10.6823 27.9514 9.82644C28.8073 8.97061 30.2026 8.97061 31.0585 9.82644L34.3701 13.1381C35.2259 13.9939 35.2259 15.3893 34.3701 16.2451Z" fill="url(#paint7_linear_701_17)"/>
<path d="M73.793 55.6504C72.9371 56.5062 71.5418 56.5062 70.686 55.6504L67.3743 52.3387C66.5185 51.4829 66.5185 50.0875 67.3743 49.2317C68.2301 48.3759 69.6255 48.3759 70.4813 49.2317L73.793 52.5434C74.6488 53.4178 74.6488 54.7946 73.793 55.6504Z" fill="url(#paint8_linear_701_17)"/>
<path d="M73.793 9.82644C74.6488 10.6823 74.6488 12.0776 73.793 12.9335L70.4813 16.2451C69.6255 17.1009 68.2301 17.1009 67.3743 16.2451C66.5185 15.3893 66.5185 13.9939 67.3743 13.1381L70.686 9.82644C71.5418 8.97061 72.9371 8.97061 73.793 9.82644Z" fill="url(#paint9_linear_701_17)"/>
<path d="M61.157 48.4886C60.0221 48.4886 58.9244 48.6374 57.8825 48.8979C58.2174 47.4839 58.4035 45.9955 58.4035 44.4699C58.4035 34.0326 49.9382 25.5674 39.5009 25.5674C29.5101 25.5674 21.3239 33.3256 20.6542 43.1676C19.3146 42.8141 17.9192 42.6094 16.4681 42.6094C7.61215 42.6094 0.430664 49.8095 0.430664 58.6655C0.430664 67.5214 7.61215 74.7029 16.4681 74.7029H61.157C68.3943 74.7029 74.2548 68.8423 74.2548 61.605C74.2548 54.3677 68.3943 48.4886 61.157 48.4886Z" fill="url(#paint10_linear_701_17)"/>
<path d="M61.1056 74.7006C68.3394 74.7006 74.2035 68.8365 74.2035 61.6027C74.2035 54.369 68.3394 48.5049 61.1056 48.5049C53.8719 48.5049 48.0078 54.369 48.0078 61.6027C48.0078 68.8365 53.8719 74.7006 61.1056 74.7006Z" fill="url(#paint11_linear_701_17)"/>
<path d="M16.4163 74.7008C25.2735 74.7008 32.4537 67.5206 32.4537 58.6634C32.4537 49.8062 25.2735 42.626 16.4163 42.626C7.5591 42.626 0.378906 49.8062 0.378906 58.6634C0.378906 67.5206 7.5591 74.7008 16.4163 74.7008Z" fill="url(#paint12_linear_701_17)"/>
<path d="M58.351 44.4699C58.351 45.9955 58.165 47.4839 57.8301 48.8979C52.2486 50.3305 48.1183 55.3352 48.0067 61.326C45.4392 62.6283 42.5369 63.3725 39.4485 63.3725C29.0111 63.3725 20.5459 54.9073 20.5459 44.4699C20.5459 34.0326 29.0111 25.5674 39.4485 25.5674C49.8858 25.5674 58.351 34.0326 58.351 44.4699Z" fill="url(#paint13_linear_701_17)"/>
<defs>
<linearGradient id="paint0_linear_701_17" x1="37.9594" y1="19.8292" x2="62.8745" y2="44.7443" gradientUnits="userSpaceOnUse">
<stop stop-color="#FEF0AE"/>
<stop offset="0.147" stop-color="#FDEEA9"/>
<stop offset="0.299" stop-color="#FDEB9D"/>
<stop offset="0.453" stop-color="#FDE688"/>
<stop offset="0.609" stop-color="#FCDF6B"/>
<stop offset="0.767" stop-color="#FBD646"/>
<stop offset="0.923" stop-color="#FACC18"/>
<stop offset="1" stop-color="#FAC600"/>
</linearGradient>
<linearGradient id="paint1_linear_701_17" x1="52.5447" y1="31.4684" x2="38.3345" y2="42.2577" gradientUnits="userSpaceOnUse">
<stop stop-color="#FE9738" stop-opacity="0"/>
<stop offset="0.121" stop-color="#FE9738" stop-opacity="0.016"/>
<stop offset="0.246" stop-color="#FE9738" stop-opacity="0.065"/>
<stop offset="0.373" stop-color="#FE9738" stop-opacity="0.147"/>
<stop offset="0.502" stop-color="#FE9738" stop-opacity="0.262"/>
<stop offset="0.632" stop-color="#FE9738" stop-opacity="0.41"/>
<stop offset="0.762" stop-color="#FE9738" stop-opacity="0.59"/>
<stop offset="0.892" stop-color="#FE9738" stop-opacity="0.8"/>
<stop offset="1" stop-color="#FE9738"/>
</linearGradient>
<linearGradient id="paint2_linear_701_17" x1="50.8701" y1="35.8713" x2="50.8701" y2="54.2353" gradientUnits="userSpaceOnUse">
<stop stop-color="#FE9738" stop-opacity="0"/>
<stop offset="0.121" stop-color="#FE9738" stop-opacity="0.016"/>
<stop offset="0.246" stop-color="#FE9738" stop-opacity="0.065"/>
<stop offset="0.373" stop-color="#FE9738" stop-opacity="0.147"/>
<stop offset="0.502" stop-color="#FE9738" stop-opacity="0.262"/>
<stop offset="0.632" stop-color="#FE9738" stop-opacity="0.41"/>
<stop offset="0.762" stop-color="#FE9738" stop-opacity="0.59"/>
<stop offset="0.892" stop-color="#FE9738" stop-opacity="0.8"/>
<stop offset="1" stop-color="#FE9738"/>
</linearGradient>
<linearGradient id="paint3_linear_701_17" x1="54.0014" y1="32.7401" x2="72.3655" y2="32.7401" gradientUnits="userSpaceOnUse">
<stop stop-color="#FE9738" stop-opacity="0"/>
<stop offset="0.121" stop-color="#FE9738" stop-opacity="0.016"/>
<stop offset="0.246" stop-color="#FE9738" stop-opacity="0.065"/>
<stop offset="0.373" stop-color="#FE9738" stop-opacity="0.147"/>
<stop offset="0.502" stop-color="#FE9738" stop-opacity="0.262"/>
<stop offset="0.632" stop-color="#FE9738" stop-opacity="0.41"/>
<stop offset="0.762" stop-color="#FE9738" stop-opacity="0.59"/>
<stop offset="0.892" stop-color="#FE9738" stop-opacity="0.8"/>
<stop offset="1" stop-color="#FE9738"/>
</linearGradient>
<linearGradient id="paint4_linear_701_17" x1="59.5571" y1="41.4279" x2="66.427" y2="48.2977" gradientUnits="userSpaceOnUse">
<stop stop-color="#F5FBFF" stop-opacity="0"/>
<stop offset="0.12" stop-color="#F5FBFF" stop-opacity="0.016"/>
<stop offset="0.245" stop-color="#F5FBFF" stop-opacity="0.065"/>
<stop offset="0.372" stop-color="#F5FBFF" stop-opacity="0.147"/>
<stop offset="0.501" stop-color="#F5FBFF" stop-opacity="0.261"/>
<stop offset="0.63" stop-color="#F5FBFF" stop-opacity="0.408"/>
<stop offset="0.761" stop-color="#F5FBFF" stop-opacity="0.588"/>
<stop offset="0.89" stop-color="#F5FBFF" stop-opacity="0.797"/>
<stop offset="1" stop-color="#F5FBFF"/>
</linearGradient>
<linearGradient id="paint5_linear_701_17" x1="49.1564" y1="4.86711" x2="52.4896" y2="4.86711" gradientUnits="userSpaceOnUse">
<stop stop-color="#FEF0AE"/>
<stop offset="0.147" stop-color="#FDEEA9"/>
<stop offset="0.299" stop-color="#FDEB9D"/>
<stop offset="0.453" stop-color="#FDE688"/>
<stop offset="0.609" stop-color="#FCDF6B"/>
<stop offset="0.767" stop-color="#FBD646"/>
<stop offset="0.923" stop-color="#FACC18"/>
<stop offset="1" stop-color="#FAC600"/>
</linearGradient>
<linearGradient id="paint6_linear_701_17" x1="78.7419" y1="31.0281" x2="78.7419" y2="34.3614" gradientUnits="userSpaceOnUse">
<stop stop-color="#FEF0AE"/>
<stop offset="0.147" stop-color="#FDEEA9"/>
<stop offset="0.299" stop-color="#FDEB9D"/>
<stop offset="0.453" stop-color="#FDE688"/>
<stop offset="0.609" stop-color="#FCDF6B"/>
<stop offset="0.767" stop-color="#FBD646"/>
<stop offset="0.923" stop-color="#FACC18"/>
<stop offset="1" stop-color="#FAC600"/>
</linearGradient>
<linearGradient id="paint7_linear_701_17" x1="32.3875" y1="11.8186" x2="30.0305" y2="14.1756" gradientUnits="userSpaceOnUse">
<stop stop-color="#FEF0AE"/>
<stop offset="0.147" stop-color="#FDEEA9"/>
<stop offset="0.299" stop-color="#FDEB9D"/>
<stop offset="0.453" stop-color="#FDE688"/>
<stop offset="0.609" stop-color="#FCDF6B"/>
<stop offset="0.767" stop-color="#FBD646"/>
<stop offset="0.923" stop-color="#FACC18"/>
<stop offset="1" stop-color="#FAC600"/>
</linearGradient>
<linearGradient id="paint8_linear_701_17" x1="71.8048" y1="51.237" x2="69.4479" y2="53.594" gradientUnits="userSpaceOnUse">
<stop stop-color="#FEF0AE"/>
<stop offset="0.147" stop-color="#FDEEA9"/>
<stop offset="0.299" stop-color="#FDEB9D"/>
<stop offset="0.453" stop-color="#FDE688"/>
<stop offset="0.609" stop-color="#FCDF6B"/>
<stop offset="0.767" stop-color="#FBD646"/>
<stop offset="0.923" stop-color="#FACC18"/>
<stop offset="1" stop-color="#FAC600"/>
</linearGradient>
<linearGradient id="paint9_linear_701_17" x1="69.3596" y1="11.829" x2="71.7166" y2="14.186" gradientUnits="userSpaceOnUse">
<stop stop-color="#FEF0AE"/>
<stop offset="0.147" stop-color="#FDEEA9"/>
<stop offset="0.299" stop-color="#FDEB9D"/>
<stop offset="0.453" stop-color="#FDE688"/>
<stop offset="0.609" stop-color="#FCDF6B"/>
<stop offset="0.767" stop-color="#FBD646"/>
<stop offset="0.923" stop-color="#FACC18"/>
<stop offset="1" stop-color="#FAC600"/>
</linearGradient>
<linearGradient id="paint10_linear_701_17" x1="24.7543" y1="38.983" x2="47.0923" y2="77.2058" gradientUnits="userSpaceOnUse">
<stop stop-color="#EAF6FF"/>
<stop offset="0.265" stop-color="#E5F3FE"/>
<stop offset="0.54" stop-color="#D9EDFE"/>
<stop offset="0.818" stop-color="#C4E3FE"/>
<stop offset="1" stop-color="#B3DAFE"/>
</linearGradient>
<linearGradient id="paint11_linear_701_17" x1="61.2563" y1="61.5958" x2="74.9884" y2="61.5958" gradientUnits="userSpaceOnUse">
<stop stop-color="#8AC9FE" stop-opacity="0"/>
<stop offset="0.129" stop-color="#89C8FD" stop-opacity="0.019"/>
<stop offset="0.263" stop-color="#88C6FB" stop-opacity="0.075"/>
<stop offset="0.399" stop-color="#87C4F8" stop-opacity="0.168"/>
<stop offset="0.536" stop-color="#85C0F4" stop-opacity="0.298"/>
<stop offset="0.675" stop-color="#83BBEF" stop-opacity="0.466"/>
<stop offset="0.815" stop-color="#7FB5E9" stop-opacity="0.672"/>
<stop offset="0.953" stop-color="#7CAEE1" stop-opacity="0.911"/>
<stop offset="1" stop-color="#7BACDF"/>
</linearGradient>
<linearGradient id="paint12_linear_701_17" x1="19.4772" y1="53.4962" x2="26.675" y2="41.3344" gradientUnits="userSpaceOnUse">
<stop stop-color="#8AC9FE" stop-opacity="0"/>
<stop offset="0.129" stop-color="#89C8FD" stop-opacity="0.019"/>
<stop offset="0.263" stop-color="#88C6FB" stop-opacity="0.075"/>
<stop offset="0.399" stop-color="#87C4F8" stop-opacity="0.168"/>
<stop offset="0.536" stop-color="#85C0F4" stop-opacity="0.298"/>
<stop offset="0.675" stop-color="#83BBEF" stop-opacity="0.466"/>
<stop offset="0.815" stop-color="#7FB5E9" stop-opacity="0.672"/>
<stop offset="0.953" stop-color="#7CAEE1" stop-opacity="0.911"/>
<stop offset="1" stop-color="#7BACDF"/>
</linearGradient>
<linearGradient id="paint13_linear_701_17" x1="46.1163" y1="41.6373" x2="59.519" y2="35.9288" gradientUnits="userSpaceOnUse">
<stop stop-color="#8AC9FE" stop-opacity="0"/>
<stop offset="0.129" stop-color="#89C8FD" stop-opacity="0.019"/>
<stop offset="0.263" stop-color="#88C6FB" stop-opacity="0.075"/>
<stop offset="0.399" stop-color="#87C4F8" stop-opacity="0.168"/>
<stop offset="0.536" stop-color="#85C0F4" stop-opacity="0.298"/>
<stop offset="0.675" stop-color="#83BBEF" stop-opacity="0.466"/>
<stop offset="0.815" stop-color="#7FB5E9" stop-opacity="0.672"/>
<stop offset="0.953" stop-color="#7CAEE1" stop-opacity="0.911"/>
<stop offset="1" stop-color="#7BACDF"/>
</linearGradient>
</defs>
</svg>
