<svg width="80" height="77" viewBox="0 0 80 77" fill="none" xmlns="http://www.w3.org/2000/svg">
<path d="M68.7365 22.7377C67.8931 22.7377 67.0669 22.841 66.2751 23.0303C64.4506 16.4207 58.5811 11.4807 51.4896 11.0676C51.2658 5.45633 46.6529 0.963867 40.9899 0.963867C35.9811 0.963867 31.7985 4.47522 30.7485 9.17424C29.0617 8.53737 27.2544 8.19312 25.3438 8.19312C17.099 8.19312 10.3689 14.6478 9.93856 22.7893C4.6199 23.3057 0.47168 27.7982 0.47168 33.2373C0.47168 39.0379 5.1707 43.737 10.9713 43.737C12.9852 43.737 14.8441 43.169 16.4449 42.2051C19.3194 46.4565 24.1905 49.245 29.7157 49.245C33.6746 49.245 37.2892 47.7991 40.0777 45.4238C41.9194 47.0418 44.3464 48.0401 47.0143 48.0401C50.9216 48.0401 54.3296 45.9057 56.137 42.7386C57.841 42.119 59.4073 41.2067 60.8015 40.0879C62.7294 42.3083 65.5694 43.7198 68.7537 43.7198C74.5543 43.7198 79.2534 39.0207 79.2534 33.2201C79.2362 27.4367 74.5371 22.7377 68.7365 22.7377Z" fill="url(#paint0_linear_701_210)"/>
<path d="M13.6915 33.2369C13.6915 36.559 14.707 39.64 16.4283 42.2047C14.8275 43.1858 12.9514 43.7366 10.9547 43.7366C5.15409 43.7366 0.455078 39.0376 0.455078 33.2369C0.455078 27.4363 5.15409 22.7373 10.9547 22.7373C12.9686 22.7373 14.8447 23.3053 16.4283 24.2692C14.707 26.8339 13.6915 29.9149 13.6915 33.2369Z" fill="url(#paint1_linear_701_210)"/>
<path d="M68.7369 43.7366C74.5357 43.7366 79.2366 39.0357 79.2366 33.2369C79.2366 27.4382 74.5357 22.7373 68.7369 22.7373C62.9382 22.7373 58.2373 27.4382 58.2373 33.2369C58.2373 39.0357 62.9382 43.7366 68.7369 43.7366Z" fill="url(#paint2_linear_701_210)"/>
<path d="M58.2369 33.2373C58.2369 35.8536 59.2008 38.2634 60.8016 40.1051C57.996 42.3772 54.4158 43.737 50.5257 43.737C41.4891 43.737 34.1738 36.4044 34.1738 27.3851C34.1738 18.3485 41.4891 11.0332 50.5257 11.0332C58.0476 11.0332 64.3818 16.1109 66.2924 23.0303C61.6622 24.1319 58.2369 28.2801 58.2369 33.2373Z" fill="url(#paint3_linear_701_210)"/>
<path d="M51.4895 11.0676C51.1625 11.0504 50.8354 11.0332 50.5256 11.0332C43.9504 11.0332 38.2703 14.9232 35.6712 20.5173C32.5729 18.6928 30.4902 15.3191 30.4902 11.4635C30.4902 5.66288 35.1893 0.963867 40.9899 0.963867C46.6528 0.963867 51.2657 5.43912 51.4895 11.0676Z" fill="url(#paint4_linear_701_210)"/>
<path d="M29.7166 49.2458C38.5574 49.2458 45.7243 42.0789 45.7243 33.2381C45.7243 24.3973 38.5574 17.2305 29.7166 17.2305C20.8759 17.2305 13.709 24.3973 13.709 33.2381C13.709 42.0789 20.8759 49.2458 29.7166 49.2458Z" fill="url(#paint5_linear_701_210)"/>
<path d="M57.5148 37.5413C57.5148 43.3419 52.8158 48.0409 47.0151 48.0409C44.3644 48.0409 41.9374 47.0598 40.0957 45.4246C43.5554 42.4813 45.7414 38.1093 45.7414 33.2209C45.7414 31.121 45.3455 29.1243 44.6054 27.2998C45.3799 27.1105 46.1889 27.0244 47.0151 27.0244C52.8158 27.0416 57.5148 31.7406 57.5148 37.5413Z" fill="url(#paint6_linear_701_210)"/>
<path d="M66.8606 27.3845C66.8606 34.4416 62.3854 40.4488 56.12 42.7553C56.9979 41.2234 57.497 39.4333 57.497 37.5399C57.497 31.7393 52.798 27.0403 46.9974 27.0403C41.7132 27.0403 37.3412 30.9475 36.601 36.0252C35.0347 33.5122 34.1396 30.5688 34.1396 27.4017C34.1396 18.3652 41.455 11.0498 50.4915 11.0498C59.5453 11.0326 66.8606 18.3479 66.8606 27.3845Z" fill="url(#paint7_linear_701_210)"/>
<path d="M50.4289 54.9988H47.5492C47.1674 54.9988 46.8011 54.8471 46.5311 54.5771C46.2611 54.3071 46.1094 53.9409 46.1094 53.559C46.1094 53.1771 46.2611 52.8109 46.5311 52.5409C46.8011 52.2708 47.1674 52.1191 47.5492 52.1191H50.4289C50.8108 52.1191 51.177 52.2708 51.447 52.5409C51.7171 52.8109 51.8688 53.1771 51.8688 53.559C51.8688 53.9409 51.7171 54.3071 51.447 54.5771C51.177 54.8471 50.8108 54.9988 50.4289 54.9988Z" fill="#CDE2FF"/>
<path d="M21.1567 63.5867H5.56858C5.15515 63.5867 4.75866 63.4225 4.46633 63.1301C4.174 62.8378 4.00977 62.4413 4.00977 62.0279C4.00977 61.6145 4.174 61.218 4.46633 60.9256C4.75866 60.6333 5.15515 60.4691 5.56858 60.4691H21.1567C21.7733 60.4691 22.376 60.2862 22.8887 59.9437C23.4014 59.6011 23.801 59.1142 24.037 58.5445C24.2729 57.9748 24.3347 57.348 24.2144 56.7432C24.0941 56.1385 23.7972 55.583 23.3612 55.147C22.9252 54.711 22.3697 54.414 21.7649 54.2937C21.1601 54.1734 20.5333 54.2352 19.9636 54.4711C19.3939 54.7071 18.907 55.1067 18.5645 55.6194C18.2219 56.1321 18.0391 56.7348 18.0391 57.3515C18.0391 57.7649 17.8748 58.1614 17.5825 58.4537C17.2902 58.746 16.8937 58.9103 16.4802 58.9103C16.0668 58.9103 15.6703 58.746 15.378 58.4537C15.0857 58.1614 14.9214 57.7649 14.9214 57.3515C14.9214 56.1182 15.2871 54.9127 15.9723 53.8873C16.6574 52.862 17.6312 52.0628 18.7706 51.5908C19.9099 51.1189 21.1636 50.9954 22.3731 51.236C23.5826 51.4766 24.6936 52.0705 25.5657 52.9425C26.4377 53.8145 27.0315 54.9255 27.2721 56.135C27.5127 57.3445 27.3892 58.5982 26.9173 59.7376C26.4454 60.8769 25.6462 61.8507 24.6208 62.5359C23.5954 63.221 22.3899 63.5867 21.1567 63.5867Z" fill="url(#paint8_linear_701_210)"/>
<path d="M69.4789 63.5867H53.8908C53.4774 63.5867 53.0809 63.4225 52.7886 63.1301C52.4963 62.8378 52.332 62.4413 52.332 62.0279C52.332 61.6145 52.4963 61.218 52.7886 60.9256C53.0809 60.6333 53.4774 60.4691 53.8908 60.4691H69.4789C70.0955 60.4691 70.6983 60.2862 71.211 59.9437C71.7237 59.6011 72.1233 59.1142 72.3592 58.5445C72.5952 57.9748 72.657 57.348 72.5367 56.7432C72.4164 56.1385 72.1194 55.583 71.6834 55.147C71.2474 54.711 70.6919 54.414 70.0872 54.2937C69.4824 54.1734 68.8556 54.2352 68.2859 54.4711C67.7162 54.7071 67.2293 55.1067 66.8867 55.6194C66.5442 56.1321 66.3613 56.7348 66.3613 57.3515C66.3613 57.7649 66.1971 58.1614 65.9048 58.4537C65.6124 58.746 65.2159 58.9103 64.8025 58.9103C64.3891 58.9103 63.9926 58.746 63.7003 58.4537C63.4079 58.1614 63.2437 57.7649 63.2437 57.3515C63.2437 56.1182 63.6094 54.9127 64.2945 53.8873C64.9797 52.862 65.9535 52.0628 67.0928 51.5908C68.2322 51.1189 69.4859 50.9954 70.6954 51.236C71.9049 51.4766 73.0159 52.0705 73.8879 52.9425C74.7599 53.8145 75.3538 54.9255 75.5944 56.135C75.835 57.3445 75.7115 58.5982 75.2396 59.7376C74.7676 60.8769 73.9684 61.8507 72.9431 62.5359C71.9177 63.221 70.7122 63.5867 69.4789 63.5867Z" fill="url(#paint9_linear_701_210)"/>
<path d="M39.8612 76.0578H21.1555C20.7421 76.0578 20.3456 75.8936 20.0532 75.6013C19.7609 75.3089 19.5967 74.9124 19.5967 74.499C19.5967 74.0856 19.7609 73.6891 20.0532 73.3968C20.3456 73.1044 20.7421 72.9402 21.1555 72.9402H39.8612C40.7861 72.9402 41.6903 72.6659 42.4593 72.1521C43.2283 71.6382 43.8277 70.9079 44.1817 70.0534C44.5356 69.1989 44.6282 68.2586 44.4478 67.3515C44.2673 66.4443 43.822 65.6111 43.1679 64.957C42.5139 64.303 41.6807 63.8576 40.7735 63.6772C39.8664 63.4968 38.9261 63.5894 38.0716 63.9433C37.2171 64.2973 36.4868 64.8967 35.9729 65.6657C35.459 66.4347 35.1848 67.3389 35.1848 68.2638C35.1848 68.6772 35.0206 69.0737 34.7282 69.366C34.4359 69.6584 34.0394 69.8226 33.626 69.8226C33.2125 69.8226 32.8161 69.6584 32.5237 69.366C32.2314 69.0737 32.0672 68.6772 32.0672 68.2638C32.0672 66.7223 32.5243 65.2154 33.3807 63.9336C34.2371 62.6519 35.4544 61.6529 36.8786 61.063C38.3027 60.4731 39.8699 60.3188 41.3818 60.6195C42.8937 60.9202 44.2824 61.6625 45.3724 62.7526C46.4625 63.8426 47.2048 65.2313 47.5055 66.7432C47.8062 68.2551 47.6519 69.8223 47.062 71.2464C46.4721 72.6706 45.4731 73.8879 44.1914 74.7443C42.9096 75.6007 41.4027 76.0578 39.8612 76.0578Z" fill="url(#paint10_linear_701_210)"/>
<defs>
<linearGradient id="paint0_linear_701_210" x1="34.1086" y1="12.4088" x2="43.5166" y2="46.5128" gradientUnits="userSpaceOnUse">
<stop stop-color="#EAF9FA"/>
<stop offset="1" stop-color="#B3DAFE"/>
</linearGradient>
<linearGradient id="paint1_linear_701_210" x1="11.9133" y1="38.3115" x2="14.2654" y2="44.1132" gradientUnits="userSpaceOnUse">
<stop stop-color="#B3DAFE" stop-opacity="0"/>
<stop offset="0.095" stop-color="#B1D8FC" stop-opacity="0.033"/>
<stop offset="0.238" stop-color="#ABD4FA" stop-opacity="0.126"/>
<stop offset="0.411" stop-color="#A3CDF5" stop-opacity="0.277"/>
<stop offset="0.608" stop-color="#97C3EE" stop-opacity="0.487"/>
<stop offset="0.821" stop-color="#88B7E6" stop-opacity="0.752"/>
<stop offset="1" stop-color="#7BACDF"/>
</linearGradient>
<linearGradient id="paint2_linear_701_210" x1="66.6064" y1="32.7751" x2="78.6016" y2="35.3623" gradientUnits="userSpaceOnUse">
<stop stop-color="#B3DAFE" stop-opacity="0"/>
<stop offset="0.095" stop-color="#B1D8FC" stop-opacity="0.033"/>
<stop offset="0.238" stop-color="#ABD4FA" stop-opacity="0.126"/>
<stop offset="0.411" stop-color="#A3CDF5" stop-opacity="0.277"/>
<stop offset="0.608" stop-color="#97C3EE" stop-opacity="0.487"/>
<stop offset="0.821" stop-color="#88B7E6" stop-opacity="0.752"/>
<stop offset="1" stop-color="#7BACDF"/>
</linearGradient>
<linearGradient id="paint3_linear_701_210" x1="57.4391" y1="24.3469" x2="66.3767" y2="20.4269" gradientUnits="userSpaceOnUse">
<stop stop-color="#B3DAFE" stop-opacity="0"/>
<stop offset="0.095" stop-color="#B1D8FC" stop-opacity="0.033"/>
<stop offset="0.238" stop-color="#ABD4FA" stop-opacity="0.126"/>
<stop offset="0.411" stop-color="#A3CDF5" stop-opacity="0.277"/>
<stop offset="0.608" stop-color="#97C3EE" stop-opacity="0.487"/>
<stop offset="0.821" stop-color="#88B7E6" stop-opacity="0.752"/>
<stop offset="1" stop-color="#7BACDF"/>
</linearGradient>
<linearGradient id="paint4_linear_701_210" x1="44.3179" y1="9.67013" x2="51.8444" y2="8.41568" gradientUnits="userSpaceOnUse">
<stop stop-color="#B3DAFE" stop-opacity="0"/>
<stop offset="0.095" stop-color="#B1D8FC" stop-opacity="0.033"/>
<stop offset="0.238" stop-color="#ABD4FA" stop-opacity="0.126"/>
<stop offset="0.411" stop-color="#A3CDF5" stop-opacity="0.277"/>
<stop offset="0.608" stop-color="#97C3EE" stop-opacity="0.487"/>
<stop offset="0.821" stop-color="#88B7E6" stop-opacity="0.752"/>
<stop offset="1" stop-color="#7BACDF"/>
</linearGradient>
<linearGradient id="paint5_linear_701_210" x1="32.6693" y1="37.8611" x2="38.7845" y2="47.4259" gradientUnits="userSpaceOnUse">
<stop stop-color="#B3DAFE" stop-opacity="0"/>
<stop offset="0.095" stop-color="#B1D8FC" stop-opacity="0.033"/>
<stop offset="0.238" stop-color="#ABD4FA" stop-opacity="0.126"/>
<stop offset="0.411" stop-color="#A3CDF5" stop-opacity="0.277"/>
<stop offset="0.608" stop-color="#97C3EE" stop-opacity="0.487"/>
<stop offset="0.821" stop-color="#88B7E6" stop-opacity="0.752"/>
<stop offset="1" stop-color="#7BACDF"/>
</linearGradient>
<linearGradient id="paint6_linear_701_210" x1="46.2685" y1="42.0568" x2="42.9755" y2="47.7016" gradientUnits="userSpaceOnUse">
<stop stop-color="#B3DAFE" stop-opacity="0"/>
<stop offset="0.095" stop-color="#B1D8FC" stop-opacity="0.033"/>
<stop offset="0.238" stop-color="#ABD4FA" stop-opacity="0.126"/>
<stop offset="0.411" stop-color="#A3CDF5" stop-opacity="0.277"/>
<stop offset="0.608" stop-color="#97C3EE" stop-opacity="0.487"/>
<stop offset="0.821" stop-color="#88B7E6" stop-opacity="0.752"/>
<stop offset="1" stop-color="#7BACDF"/>
</linearGradient>
<linearGradient id="paint7_linear_701_210" x1="53.7915" y1="36.9676" x2="55.8298" y2="42.926" gradientUnits="userSpaceOnUse">
<stop stop-color="#B3DAFE" stop-opacity="0"/>
<stop offset="0.095" stop-color="#B1D8FC" stop-opacity="0.033"/>
<stop offset="0.238" stop-color="#ABD4FA" stop-opacity="0.126"/>
<stop offset="0.411" stop-color="#A3CDF5" stop-opacity="0.277"/>
<stop offset="0.608" stop-color="#97C3EE" stop-opacity="0.487"/>
<stop offset="0.821" stop-color="#88B7E6" stop-opacity="0.752"/>
<stop offset="1" stop-color="#7BACDF"/>
</linearGradient>
<linearGradient id="paint8_linear_701_210" x1="15.7008" y1="51.2456" x2="15.7008" y2="63.4776" gradientUnits="userSpaceOnUse">
<stop stop-color="#E9F9FA"/>
<stop offset="1" stop-color="#B3DAFE"/>
</linearGradient>
<linearGradient id="paint9_linear_701_210" x1="64.0231" y1="51.6353" x2="64.0231" y2="63.9811" gradientUnits="userSpaceOnUse">
<stop stop-color="#E9F8FA"/>
<stop offset="1" stop-color="#B3DAFE"/>
</linearGradient>
<linearGradient id="paint10_linear_701_210" x1="33.626" y1="60.7301" x2="33.626" y2="75.4094" gradientUnits="userSpaceOnUse">
<stop stop-color="#E8F8FA"/>
<stop offset="1" stop-color="#B3DAFE"/>
</linearGradient>
</defs>
</svg>
