<svg width="82" height="77" viewBox="0 0 82 77" fill="none" xmlns="http://www.w3.org/2000/svg">
<path d="M72.7508 53.1089C75.6178 53.1089 77.9419 50.7848 77.9419 47.9177C77.9419 45.0507 75.6178 42.7266 72.7508 42.7266C69.8837 42.7266 67.5596 45.0507 67.5596 47.9177C67.5596 50.7848 69.8837 53.1089 72.7508 53.1089Z" fill="url(#paint0_radial_701_192)"/>
<path d="M60.1131 76.2173C62.9801 76.2173 65.3042 73.8932 65.3042 71.0261C65.3042 68.1591 62.9801 65.835 60.1131 65.835C57.246 65.835 54.9219 68.1591 54.9219 71.0261C54.9219 73.8932 57.246 76.2173 60.1131 76.2173Z" fill="url(#paint1_radial_701_192)"/>
<path d="M21.8416 61.396C24.7086 61.396 27.0328 59.0719 27.0328 56.2049C27.0328 53.3378 24.7086 51.0137 21.8416 51.0137C18.9746 51.0137 16.6504 53.3378 16.6504 56.2049C16.6504 59.0719 18.9746 61.396 21.8416 61.396Z" fill="url(#paint2_radial_701_192)"/>
<path d="M35.07 68.5033C37.0967 68.5033 38.7396 66.8604 38.7396 64.8337C38.7396 62.807 37.0967 61.1641 35.07 61.1641C33.0433 61.1641 31.4004 62.807 31.4004 64.8337C31.4004 66.8604 33.0433 68.5033 35.07 68.5033Z" fill="url(#paint3_radial_701_192)"/>
<path d="M69.778 68.5033C71.8047 68.5033 73.4477 66.8604 73.4477 64.8337C73.4477 62.807 71.8047 61.1641 69.778 61.1641C67.7513 61.1641 66.1084 62.807 66.1084 64.8337C66.1084 66.8604 67.7513 68.5033 69.778 68.5033Z" fill="url(#paint4_radial_701_192)"/>
<path d="M51.7698 57.5112C53.1835 57.5112 54.3295 56.3651 54.3295 54.9514C54.3295 53.5377 53.1835 52.3916 51.7698 52.3916C50.356 52.3916 49.21 53.5377 49.21 54.9514C49.21 56.3651 50.356 57.5112 51.7698 57.5112Z" fill="url(#paint5_radial_701_192)"/>
<path d="M29.5735 76.145C30.9872 76.145 32.1333 74.9989 32.1333 73.5852C32.1333 72.1715 30.9872 71.0254 29.5735 71.0254C28.1597 71.0254 27.0137 72.1715 27.0137 73.5852C27.0137 74.9989 28.1597 76.145 29.5735 76.145Z" fill="url(#paint6_radial_701_192)"/>
<path d="M6.85764 61.3237C8.27137 61.3237 9.41743 60.1776 9.41743 58.7639C9.41743 57.3502 8.27137 56.2041 6.85764 56.2041C5.44391 56.2041 4.29785 57.3502 4.29785 58.7639C4.29785 60.1776 5.44391 61.3237 6.85764 61.3237Z" fill="url(#paint7_radial_701_192)"/>
<path d="M71.0308 23.447C70.1537 23.447 69.2944 23.5544 68.471 23.7513C66.5736 16.8775 60.4695 11.74 53.0944 11.3104C52.8617 5.47479 48.0644 0.802734 42.1751 0.802734C36.966 0.802734 32.6162 4.45445 31.5242 9.34131C29.77 8.67899 27.8904 8.32098 25.9034 8.32098C17.3291 8.32098 10.3299 15.0337 9.88243 23.5007C4.35115 24.0377 0.0371094 28.7097 0.0371094 34.3663C0.0371094 40.3988 4.92397 45.2857 10.9565 45.2857C13.0508 45.2857 14.9841 44.695 16.6488 43.6925C19.6382 48.114 24.7041 51.0139 30.4502 51.0139C34.5673 51.0139 38.3264 49.5102 41.2263 47.0399C43.1417 48.7226 45.6657 49.7608 48.4403 49.7608C52.5037 49.7608 56.048 47.5412 57.9276 44.2474C59.6997 43.603 61.3287 42.6543 62.7786 41.4908C64.7835 43.7999 67.7371 45.2678 71.0487 45.2678C77.0812 45.2678 81.9681 40.3809 81.9681 34.3484C81.9502 28.3338 77.0633 23.447 71.0308 23.447Z" fill="url(#paint8_linear_701_192)"/>
<path d="M30.4513 51.0139C39.6455 51.0139 47.0989 43.5605 47.0989 34.3663C47.0989 25.1721 39.6455 17.7188 30.4513 17.7188C21.2571 17.7188 13.8037 25.1721 13.8037 34.3663C13.8037 43.5605 21.2571 51.0139 30.4513 51.0139Z" fill="url(#paint9_linear_701_192)"/>
<path d="M13.7861 34.3666C13.7861 37.8215 14.8422 41.0257 16.6323 43.6929C14.9675 44.7132 13.0164 45.286 10.9399 45.286C4.90738 45.286 0.0205078 40.3992 0.0205078 34.3666C0.0205078 28.3341 4.90738 23.4473 10.9399 23.4473C13.0343 23.4473 14.9854 24.038 16.6323 25.0404C14.8422 27.7076 13.7861 30.9118 13.7861 34.3666Z" fill="url(#paint10_linear_701_192)"/>
<path d="M71.0317 45.286C77.0623 45.286 81.9511 40.3973 81.9511 34.3666C81.9511 28.336 77.0623 23.4473 71.0317 23.4473C65.0011 23.4473 60.1123 28.336 60.1123 34.3666C60.1123 40.3973 65.0011 45.286 71.0317 45.286Z" fill="url(#paint11_linear_701_192)"/>
<path d="M60.113 34.3672C60.113 37.0881 61.1154 39.5942 62.7802 41.5095C59.8624 43.8724 56.139 45.2866 52.0935 45.2866C42.6957 45.2866 35.0879 37.6609 35.0879 28.281C35.0879 18.8832 42.6957 11.2754 52.0935 11.2754C59.9161 11.2754 66.5035 16.5561 68.4905 23.7521C63.6752 24.8978 60.113 29.2118 60.113 34.3672Z" fill="url(#paint12_linear_701_192)"/>
<path d="M59.3606 38.8416C59.3606 44.8741 54.4737 49.761 48.4412 49.761C45.6845 49.761 43.1605 48.7406 41.2451 47.0401C44.8431 43.9791 47.1165 39.4323 47.1165 34.3485C47.1165 32.1646 46.7048 30.0882 45.9351 28.1907C46.7406 27.9938 47.5819 27.9043 48.4412 27.9043C54.4737 27.9222 59.3606 32.8091 59.3606 38.8416Z" fill="url(#paint13_linear_701_192)"/>
<path d="M69.0808 28.2797C69.0808 35.619 64.4267 41.8663 57.9109 44.265C58.8238 42.6718 59.3429 40.8102 59.3429 38.8411C59.3429 32.8086 54.456 27.9217 48.4235 27.9217C42.928 27.9217 38.3813 31.9851 37.6115 37.2658C35.9826 34.6523 35.0518 31.5913 35.0518 28.2976C35.0518 18.8998 42.6595 11.292 52.0573 11.292C61.4731 11.2741 69.0808 18.8819 69.0808 28.2797Z" fill="url(#paint14_linear_701_192)"/>
<path d="M53.0966 11.3104C52.7565 11.2925 52.4163 11.2746 52.0941 11.2746C45.2561 11.2746 39.3489 15.3201 36.6459 21.1378C33.4238 19.2404 31.2578 15.7319 31.2578 11.7221C31.2578 5.68961 36.1447 0.802734 42.1772 0.802734C48.0665 0.802734 52.8639 5.4569 53.0966 11.3104Z" fill="url(#paint15_linear_701_192)"/>
<defs>
<radialGradient id="paint0_radial_701_192" cx="0" cy="0" r="1" gradientUnits="userSpaceOnUse" gradientTransform="translate(71.6252 45.393) scale(5.41727 5.41727)">
<stop stop-color="#EAF9FA"/>
<stop offset="0.334" stop-color="#E7F7FA"/>
<stop offset="0.569" stop-color="#DDF2FA"/>
<stop offset="0.774" stop-color="#CEE9FC"/>
<stop offset="0.961" stop-color="#B8DDFD"/>
<stop offset="1" stop-color="#B3DAFE"/>
</radialGradient>
<radialGradient id="paint1_radial_701_192" cx="0" cy="0" r="1" gradientUnits="userSpaceOnUse" gradientTransform="translate(58.9925 68.4889) scale(5.41727)">
<stop stop-color="#EAF9FA"/>
<stop offset="0.334" stop-color="#E7F7FA"/>
<stop offset="0.569" stop-color="#DDF2FA"/>
<stop offset="0.774" stop-color="#CEE9FC"/>
<stop offset="0.961" stop-color="#B8DDFD"/>
<stop offset="1" stop-color="#B3DAFE"/>
</radialGradient>
<radialGradient id="paint2_radial_701_192" cx="0" cy="0" r="1" gradientUnits="userSpaceOnUse" gradientTransform="translate(20.7137 53.6707) scale(5.41727)">
<stop stop-color="#EAF9FA"/>
<stop offset="0.334" stop-color="#E7F7FA"/>
<stop offset="0.569" stop-color="#DDF2FA"/>
<stop offset="0.774" stop-color="#CEE9FC"/>
<stop offset="0.961" stop-color="#B8DDFD"/>
<stop offset="1" stop-color="#B3DAFE"/>
</radialGradient>
<radialGradient id="paint3_radial_701_192" cx="0" cy="0" r="1" gradientUnits="userSpaceOnUse" gradientTransform="translate(34.2786 63.0386) scale(3.83055)">
<stop stop-color="#EAF9FA"/>
<stop offset="0.334" stop-color="#E7F7FA"/>
<stop offset="0.569" stop-color="#DDF2FA"/>
<stop offset="0.774" stop-color="#CEE9FC"/>
<stop offset="0.961" stop-color="#B8DDFD"/>
<stop offset="1" stop-color="#B3DAFE"/>
</radialGradient>
<radialGradient id="paint4_radial_701_192" cx="0" cy="0" r="1" gradientUnits="userSpaceOnUse" gradientTransform="translate(68.9868 63.0386) scale(3.83055)">
<stop stop-color="#EAF9FA"/>
<stop offset="0.334" stop-color="#E7F7FA"/>
<stop offset="0.569" stop-color="#DDF2FA"/>
<stop offset="0.774" stop-color="#CEE9FC"/>
<stop offset="0.961" stop-color="#B8DDFD"/>
<stop offset="1" stop-color="#B3DAFE"/>
</radialGradient>
<radialGradient id="paint5_radial_701_192" cx="0" cy="0" r="1" gradientUnits="userSpaceOnUse" gradientTransform="translate(51.2193 53.7032) scale(2.67418 2.67417)">
<stop stop-color="#EAF9FA"/>
<stop offset="0.334" stop-color="#E7F7FA"/>
<stop offset="0.569" stop-color="#DDF2FA"/>
<stop offset="0.774" stop-color="#CEE9FC"/>
<stop offset="0.961" stop-color="#B8DDFD"/>
<stop offset="1" stop-color="#B3DAFE"/>
</radialGradient>
<radialGradient id="paint6_radial_701_192" cx="0" cy="0" r="1" gradientUnits="userSpaceOnUse" gradientTransform="translate(29.023 72.3286) scale(2.67418)">
<stop stop-color="#EAF9FA"/>
<stop offset="0.334" stop-color="#E7F7FA"/>
<stop offset="0.569" stop-color="#DDF2FA"/>
<stop offset="0.774" stop-color="#CEE9FC"/>
<stop offset="0.961" stop-color="#B8DDFD"/>
<stop offset="1" stop-color="#B3DAFE"/>
</radialGradient>
<radialGradient id="paint7_radial_701_192" cx="0" cy="0" r="1" gradientUnits="userSpaceOnUse" gradientTransform="translate(6.30183 57.5103) scale(2.67417)">
<stop stop-color="#EAF9FA"/>
<stop offset="0.334" stop-color="#E7F7FA"/>
<stop offset="0.569" stop-color="#DDF2FA"/>
<stop offset="0.774" stop-color="#CEE9FC"/>
<stop offset="0.961" stop-color="#B8DDFD"/>
<stop offset="1" stop-color="#B3DAFE"/>
</radialGradient>
<linearGradient id="paint8_linear_701_192" x1="35.0186" y1="12.7052" x2="44.8027" y2="48.1725" gradientUnits="userSpaceOnUse">
<stop stop-color="#EAF9FA"/>
<stop offset="1" stop-color="#B3DAFE"/>
</linearGradient>
<linearGradient id="paint9_linear_701_192" x1="33.522" y1="39.1741" x2="39.8817" y2="49.1213" gradientUnits="userSpaceOnUse">
<stop stop-color="#B3DAFE" stop-opacity="0"/>
<stop offset="0.095" stop-color="#B1D8FC" stop-opacity="0.033"/>
<stop offset="0.238" stop-color="#ABD4FA" stop-opacity="0.126"/>
<stop offset="0.411" stop-color="#A3CDF5" stop-opacity="0.277"/>
<stop offset="0.608" stop-color="#97C3EE" stop-opacity="0.487"/>
<stop offset="0.821" stop-color="#88B7E6" stop-opacity="0.752"/>
<stop offset="1" stop-color="#7BACDF"/>
</linearGradient>
<linearGradient id="paint10_linear_701_192" x1="11.9368" y1="39.6441" x2="14.3829" y2="45.6777" gradientUnits="userSpaceOnUse">
<stop stop-color="#B3DAFE" stop-opacity="0"/>
<stop offset="0.095" stop-color="#B1D8FC" stop-opacity="0.033"/>
<stop offset="0.238" stop-color="#ABD4FA" stop-opacity="0.126"/>
<stop offset="0.411" stop-color="#A3CDF5" stop-opacity="0.277"/>
<stop offset="0.608" stop-color="#97C3EE" stop-opacity="0.487"/>
<stop offset="0.821" stop-color="#88B7E6" stop-opacity="0.752"/>
<stop offset="1" stop-color="#7BACDF"/>
</linearGradient>
<linearGradient id="paint11_linear_701_192" x1="68.8159" y1="33.8864" x2="81.2907" y2="36.577" gradientUnits="userSpaceOnUse">
<stop stop-color="#B3DAFE" stop-opacity="0"/>
<stop offset="0.095" stop-color="#B1D8FC" stop-opacity="0.033"/>
<stop offset="0.238" stop-color="#ABD4FA" stop-opacity="0.126"/>
<stop offset="0.411" stop-color="#A3CDF5" stop-opacity="0.277"/>
<stop offset="0.608" stop-color="#97C3EE" stop-opacity="0.487"/>
<stop offset="0.821" stop-color="#88B7E6" stop-opacity="0.752"/>
<stop offset="1" stop-color="#7BACDF"/>
</linearGradient>
<linearGradient id="paint12_linear_701_192" x1="59.2833" y1="25.1213" x2="68.5782" y2="21.0447" gradientUnits="userSpaceOnUse">
<stop stop-color="#B3DAFE" stop-opacity="0"/>
<stop offset="0.095" stop-color="#B1D8FC" stop-opacity="0.033"/>
<stop offset="0.238" stop-color="#ABD4FA" stop-opacity="0.126"/>
<stop offset="0.411" stop-color="#A3CDF5" stop-opacity="0.277"/>
<stop offset="0.608" stop-color="#97C3EE" stop-opacity="0.487"/>
<stop offset="0.821" stop-color="#88B7E6" stop-opacity="0.752"/>
<stop offset="1" stop-color="#7BACDF"/>
</linearGradient>
<linearGradient id="paint13_linear_701_192" x1="47.6646" y1="43.5376" x2="44.2401" y2="49.4081" gradientUnits="userSpaceOnUse">
<stop stop-color="#B3DAFE" stop-opacity="0"/>
<stop offset="0.095" stop-color="#B1D8FC" stop-opacity="0.033"/>
<stop offset="0.238" stop-color="#ABD4FA" stop-opacity="0.126"/>
<stop offset="0.411" stop-color="#A3CDF5" stop-opacity="0.277"/>
<stop offset="0.608" stop-color="#97C3EE" stop-opacity="0.487"/>
<stop offset="0.821" stop-color="#88B7E6" stop-opacity="0.752"/>
<stop offset="1" stop-color="#7BACDF"/>
</linearGradient>
<linearGradient id="paint14_linear_701_192" x1="55.4893" y1="38.2459" x2="57.6091" y2="44.4426" gradientUnits="userSpaceOnUse">
<stop stop-color="#B3DAFE" stop-opacity="0"/>
<stop offset="0.095" stop-color="#B1D8FC" stop-opacity="0.033"/>
<stop offset="0.238" stop-color="#ABD4FA" stop-opacity="0.126"/>
<stop offset="0.411" stop-color="#A3CDF5" stop-opacity="0.277"/>
<stop offset="0.608" stop-color="#97C3EE" stop-opacity="0.487"/>
<stop offset="0.821" stop-color="#88B7E6" stop-opacity="0.752"/>
<stop offset="1" stop-color="#7BACDF"/>
</linearGradient>
<linearGradient id="paint15_linear_701_192" x1="45.6383" y1="9.85705" x2="53.4657" y2="8.55245" gradientUnits="userSpaceOnUse">
<stop stop-color="#B3DAFE" stop-opacity="0"/>
<stop offset="0.095" stop-color="#B1D8FC" stop-opacity="0.033"/>
<stop offset="0.238" stop-color="#ABD4FA" stop-opacity="0.126"/>
<stop offset="0.411" stop-color="#A3CDF5" stop-opacity="0.277"/>
<stop offset="0.608" stop-color="#97C3EE" stop-opacity="0.487"/>
<stop offset="0.821" stop-color="#88B7E6" stop-opacity="0.752"/>
<stop offset="1" stop-color="#7BACDF"/>
</linearGradient>
</defs>
</svg>
