<svg width="88" height="75" viewBox="0 0 88 75" fill="none" xmlns="http://www.w3.org/2000/svg">
<path d="M7.26756 74.6241L28.2777 52.8576C29.0794 52.0256 28.4895 50.634 27.3399 50.634H18.9752L34.7668 33.5869H20.5029L4.90788 55.5954C4.18183 56.6089 4.90788 58.0156 6.16335 58.0156H14.4978L6.481 74.0493C6.20873 74.5636 6.87428 75.0325 7.26756 74.6241Z" fill="url(#paint0_linear_701_142)"/>
<path d="M18.976 50.634L34.7677 33.5869H20.5037L8.41797 50.634H18.976Z" fill="url(#paint1_linear_701_142)"/>
<path d="M25.7362 33.5869L13.1059 52.4643C12.6218 53.1904 13.1361 54.1887 14.0285 54.1887H19.6403C20.5479 54.1887 21.0622 55.2173 20.5328 55.9433L6.69238 74.7148C6.8739 74.8056 7.10079 74.8056 7.2823 74.6089L28.2925 52.8425C29.0942 52.0105 28.5042 50.6189 27.3547 50.6189H18.9748L34.7665 33.5869H25.7362Z" fill="url(#paint2_linear_701_142)"/>
<path d="M25.7362 33.5869L13.1059 52.4643C12.6218 53.1904 13.1361 54.1887 14.0285 54.1887H19.6403C20.5479 54.1887 21.0622 55.2173 20.5328 55.9433L6.69238 74.7148C6.8739 74.8056 7.10079 74.8056 7.2823 74.6089L28.2925 52.8425C29.0942 52.0105 28.5042 50.6189 27.3547 50.6189H18.9748L34.7665 33.5869H25.7362Z" fill="url(#paint3_linear_701_142)"/>
<path d="M68.9123 17.7218C69.5755 16.4974 69.9496 15.086 69.9496 13.5896C69.9496 8.76022 66.0384 4.86612 61.2261 4.86612C59.4916 4.86612 57.8761 5.37626 56.5158 6.24351C54.5092 2.6725 50.7001 0.257812 46.3129 0.257812C40.7013 0.257812 36.0079 4.23694 34.9196 9.52544C33.4062 9.08331 31.8077 8.84525 30.1583 8.84525C23.0843 8.84525 17.0306 13.2155 14.5479 19.3882C13.8847 19.2692 13.2045 19.2012 12.5243 19.2012C6.09646 19.2012 0.875977 24.4047 0.875977 30.8495C0.875977 37.2943 6.09646 42.4978 12.5243 42.4978H63.5557C70.7148 42.4978 76.5134 36.6991 76.5134 29.5401C76.5134 24.2856 73.4015 19.7623 68.9123 17.7218Z" fill="url(#paint4_linear_701_142)"/>
<path d="M76.5134 29.5237C76.5134 36.6827 70.7148 42.4814 63.5557 42.4814H12.5243C6.09646 42.4814 0.875977 37.2779 0.875977 30.8501C0.875977 28.5884 1.52216 26.4798 2.62747 24.6943H75.5782C76.1903 26.1908 76.5134 27.8232 76.5134 29.5237Z" fill="url(#paint5_linear_701_142)"/>
<path d="M63.5563 42.4808C70.7126 42.4808 76.514 36.6794 76.514 29.5231C76.514 22.3668 70.7126 16.5654 63.5563 16.5654C56.4 16.5654 50.5986 22.3668 50.5986 29.5231C50.5986 36.6794 56.4 42.4808 63.5563 42.4808Z" fill="url(#paint6_linear_701_142)"/>
<path d="M69.9333 13.5897C69.9333 15.0861 69.5592 16.4805 68.896 17.7219C67.2635 16.9736 65.461 16.5655 63.5565 16.5655C60.2915 16.5655 57.3157 17.7729 55.0371 19.7624C53.4556 18.181 52.4863 16.0044 52.4863 13.5897C52.4863 8.76032 56.3974 4.86621 61.2098 4.86621C66.0392 4.86621 69.9333 8.77732 69.9333 13.5897Z" fill="url(#paint7_linear_701_142)"/>
<path d="M52.4857 13.59C52.4857 15.9707 53.438 18.1133 54.9684 19.6947C53.8791 20.906 52.5469 21.8743 51.0585 22.5365C49.5702 23.1986 47.959 23.5398 46.3299 23.5378C39.9021 23.5378 34.6816 18.3173 34.6816 11.8895C34.6816 5.46169 39.9021 0.241211 46.3299 0.241211C50.7002 0.241211 54.5263 2.6559 56.5158 6.22691C54.0841 7.79135 52.4857 10.5121 52.4857 13.59Z" fill="url(#paint8_linear_701_142)"/>
<path d="M46.9936 25.6635C46.9936 34.9481 39.4605 42.4813 30.1589 42.4813C26.5368 42.4813 23.1699 41.3419 20.4321 39.3864C22.7277 37.2608 24.1732 34.2169 24.1732 30.85C24.1732 25.1193 20.024 20.341 14.5654 19.3887C17.0481 13.216 23.1019 8.84573 30.1759 8.84573C39.4605 8.82873 46.9936 16.3619 46.9936 25.6635Z" fill="url(#paint9_linear_701_142)"/>
<path d="M46.9936 25.6635C46.9936 34.9481 39.4605 42.4813 30.1589 42.4813C26.5368 42.4813 23.1699 41.3419 20.4321 39.3864C22.7277 37.2608 24.1732 34.2169 24.1732 30.85C24.1732 25.1193 20.024 20.341 14.5654 19.3887C17.0481 13.216 23.1019 8.84573 30.1759 8.84573C39.4605 8.82873 46.9936 16.3619 46.9936 25.6635Z" fill="url(#paint10_linear_701_142)"/>
<path d="M75.3234 60.9311C82.2954 60.9311 87.941 55.2855 87.941 48.3136C87.941 43.1951 84.8972 38.8079 80.5269 36.8183C81.1731 35.628 81.5302 34.2506 81.5302 32.8052C81.5302 28.1118 77.7211 24.3027 73.0278 24.3027C71.3443 24.3027 69.7629 24.7959 68.4365 25.6461C66.5149 22.1771 62.8079 19.8135 58.5397 19.8135C53.0811 19.8135 48.5068 23.6736 47.4355 28.826C45.9731 28.4009 44.4087 28.1628 42.8102 28.1628C33.7637 28.1628 26.4346 35.4919 26.4346 44.5385C26.4346 53.585 33.7637 60.9141 42.8102 60.9141L75.3234 60.9311Z" fill="url(#paint11_linear_701_142)"/>
<path d="M87.941 48.3141C87.941 55.2861 82.2954 60.9317 75.3234 60.9317H42.8102C33.7637 60.9317 26.4346 53.6026 26.4346 44.5561C26.4346 43.9269 26.4686 43.2977 26.5366 42.6855H86.6147C87.4649 44.386 87.941 46.2906 87.941 48.3141Z" fill="url(#paint12_linear_701_142)"/>
<path d="M75.3236 60.9314C82.2921 60.9314 87.9412 55.2824 87.9412 48.3139C87.9412 41.3454 82.2921 35.6963 75.3236 35.6963C68.3551 35.6963 62.7061 41.3454 62.7061 48.3139C62.7061 55.2824 68.3551 60.9314 75.3236 60.9314Z" fill="url(#paint13_linear_701_142)"/>
<path d="M81.5308 32.8051C81.5308 34.2506 81.1737 35.6279 80.5275 36.8183C78.9461 36.1041 77.1775 35.696 75.324 35.696C72.1441 35.696 69.2363 36.8693 67.0257 38.8078C65.4952 37.2774 64.543 35.1518 64.543 32.8051C64.543 28.1118 68.352 24.3027 73.0454 24.3027C77.7387 24.3027 81.5308 28.1118 81.5308 32.8051Z" fill="url(#paint14_linear_701_142)"/>
<path d="M64.5432 32.8046C64.5432 35.1172 65.4614 37.2088 66.9578 38.7393C64.8833 41.0349 61.8734 42.4803 58.5405 42.4803C52.2827 42.4803 47.1982 37.4129 47.1982 31.1381C47.1982 24.8803 52.2657 19.7959 58.5405 19.7959C62.8087 19.7959 66.5157 22.1426 68.4543 25.6286C66.1076 27.159 64.5432 29.7947 64.5432 32.8046Z" fill="url(#paint15_linear_701_142)"/>
<defs>
<linearGradient id="paint0_linear_701_142" x1="17.4626" y1="38.3447" x2="24.2584" y2="72.3243" gradientUnits="userSpaceOnUse">
<stop stop-color="#FEF48B"/>
<stop offset="0.165" stop-color="#FDF286"/>
<stop offset="0.335" stop-color="#FDEE7A"/>
<stop offset="0.509" stop-color="#FCE765"/>
<stop offset="0.684" stop-color="#FCDE48"/>
<stop offset="0.859" stop-color="#FBD123"/>
<stop offset="1" stop-color="#FAC600"/>
</linearGradient>
<linearGradient id="paint1_linear_701_142" x1="21.5925" y1="45.0693" x2="21.5925" y2="40.8583" gradientUnits="userSpaceOnUse">
<stop stop-color="#FE9738" stop-opacity="0"/>
<stop offset="0.121" stop-color="#FE9738" stop-opacity="0.016"/>
<stop offset="0.246" stop-color="#FE9738" stop-opacity="0.065"/>
<stop offset="0.373" stop-color="#FE9738" stop-opacity="0.147"/>
<stop offset="0.502" stop-color="#FE9738" stop-opacity="0.262"/>
<stop offset="0.632" stop-color="#FE9738" stop-opacity="0.41"/>
<stop offset="0.762" stop-color="#FE9738" stop-opacity="0.59"/>
<stop offset="0.892" stop-color="#FE9738" stop-opacity="0.8"/>
<stop offset="1" stop-color="#FE9738"/>
</linearGradient>
<linearGradient id="paint2_linear_701_142" x1="21.6754" y1="54.9731" x2="24.425" y2="57.3454" gradientUnits="userSpaceOnUse">
<stop stop-color="#FE9738" stop-opacity="0"/>
<stop offset="0.121" stop-color="#FE9738" stop-opacity="0.016"/>
<stop offset="0.246" stop-color="#FE9738" stop-opacity="0.065"/>
<stop offset="0.373" stop-color="#FE9738" stop-opacity="0.147"/>
<stop offset="0.502" stop-color="#FE9738" stop-opacity="0.262"/>
<stop offset="0.632" stop-color="#FE9738" stop-opacity="0.41"/>
<stop offset="0.762" stop-color="#FE9738" stop-opacity="0.59"/>
<stop offset="0.892" stop-color="#FE9738" stop-opacity="0.8"/>
<stop offset="1" stop-color="#FE9738"/>
</linearGradient>
<linearGradient id="paint3_linear_701_142" x1="19.2213" y1="52.0275" x2="12.9673" y2="43.1855" gradientUnits="userSpaceOnUse">
<stop stop-color="#FE9738" stop-opacity="0"/>
<stop offset="0.121" stop-color="#FE9738" stop-opacity="0.016"/>
<stop offset="0.246" stop-color="#FE9738" stop-opacity="0.065"/>
<stop offset="0.373" stop-color="#FE9738" stop-opacity="0.147"/>
<stop offset="0.502" stop-color="#FE9738" stop-opacity="0.262"/>
<stop offset="0.632" stop-color="#FE9738" stop-opacity="0.41"/>
<stop offset="0.762" stop-color="#FE9738" stop-opacity="0.59"/>
<stop offset="0.892" stop-color="#FE9738" stop-opacity="0.8"/>
<stop offset="1" stop-color="#FE9738"/>
</linearGradient>
<linearGradient id="paint4_linear_701_142" x1="32.3075" y1="6.55011" x2="43.1282" y2="46.4315" gradientUnits="userSpaceOnUse">
<stop stop-color="#B6C4CF"/>
<stop offset="0.254" stop-color="#B1C0CB"/>
<stop offset="0.516" stop-color="#A5B4BF"/>
<stop offset="0.782" stop-color="#90A1AC"/>
<stop offset="1" stop-color="#7A8C98"/>
</linearGradient>
<linearGradient id="paint5_linear_701_142" x1="38.6964" y1="35.2011" x2="38.6964" y2="43.2408" gradientUnits="userSpaceOnUse">
<stop stop-color="#465A61" stop-opacity="0"/>
<stop offset="0.198" stop-color="#465A61" stop-opacity="0.043"/>
<stop offset="0.403" stop-color="#465A61" stop-opacity="0.171"/>
<stop offset="0.612" stop-color="#465A61" stop-opacity="0.385"/>
<stop offset="0.821" stop-color="#465A61" stop-opacity="0.682"/>
<stop offset="1" stop-color="#465A61"/>
</linearGradient>
<linearGradient id="paint6_linear_701_142" x1="66.6328" y1="29.5279" x2="78.218" y2="29.5279" gradientUnits="userSpaceOnUse">
<stop stop-color="#465A61" stop-opacity="0"/>
<stop offset="0.198" stop-color="#465A61" stop-opacity="0.043"/>
<stop offset="0.403" stop-color="#465A61" stop-opacity="0.171"/>
<stop offset="0.612" stop-color="#465A61" stop-opacity="0.385"/>
<stop offset="0.821" stop-color="#465A61" stop-opacity="0.682"/>
<stop offset="1" stop-color="#465A61"/>
</linearGradient>
<linearGradient id="paint7_linear_701_142" x1="62.1151" y1="12.381" x2="71.5445" y2="12.5356" gradientUnits="userSpaceOnUse">
<stop stop-color="#465A61" stop-opacity="0"/>
<stop offset="0.198" stop-color="#465A61" stop-opacity="0.043"/>
<stop offset="0.403" stop-color="#465A61" stop-opacity="0.171"/>
<stop offset="0.612" stop-color="#465A61" stop-opacity="0.385"/>
<stop offset="0.821" stop-color="#465A61" stop-opacity="0.682"/>
<stop offset="1" stop-color="#465A61"/>
</linearGradient>
<linearGradient id="paint8_linear_701_142" x1="51.2506" y1="7.67674" x2="57.7431" y2="2.11174" gradientUnits="userSpaceOnUse">
<stop stop-color="#465A61" stop-opacity="0"/>
<stop offset="0.198" stop-color="#465A61" stop-opacity="0.043"/>
<stop offset="0.403" stop-color="#465A61" stop-opacity="0.171"/>
<stop offset="0.612" stop-color="#465A61" stop-opacity="0.385"/>
<stop offset="0.821" stop-color="#465A61" stop-opacity="0.682"/>
<stop offset="1" stop-color="#465A61"/>
</linearGradient>
<linearGradient id="paint9_linear_701_142" x1="21.0234" y1="20.5289" x2="12.2123" y2="15.5824" gradientUnits="userSpaceOnUse">
<stop stop-color="#465A61" stop-opacity="0"/>
<stop offset="0.198" stop-color="#465A61" stop-opacity="0.043"/>
<stop offset="0.403" stop-color="#465A61" stop-opacity="0.171"/>
<stop offset="0.612" stop-color="#465A61" stop-opacity="0.385"/>
<stop offset="0.821" stop-color="#465A61" stop-opacity="0.682"/>
<stop offset="1" stop-color="#465A61"/>
</linearGradient>
<linearGradient id="paint10_linear_701_142" x1="34.8119" y1="19.8514" x2="41.5523" y2="11.426" gradientUnits="userSpaceOnUse">
<stop stop-color="#D9E7EC" stop-opacity="0"/>
<stop offset="0.125" stop-color="#D9E7EC" stop-opacity="0.018"/>
<stop offset="0.255" stop-color="#D9E7EC" stop-opacity="0.07"/>
<stop offset="0.388" stop-color="#D9E7EC" stop-opacity="0.158"/>
<stop offset="0.521" stop-color="#D9E7EC" stop-opacity="0.282"/>
<stop offset="0.656" stop-color="#D9E7EC" stop-opacity="0.441"/>
<stop offset="0.792" stop-color="#D9E7EC" stop-opacity="0.635"/>
<stop offset="0.926" stop-color="#D9E7EC" stop-opacity="0.861"/>
<stop offset="1" stop-color="#D9E7EC"/>
</linearGradient>
<linearGradient id="paint11_linear_701_142" x1="52.9749" y1="25.5501" x2="60.9122" y2="65.2371" gradientUnits="userSpaceOnUse">
<stop stop-color="#B6C4CF"/>
<stop offset="0.254" stop-color="#B1C0CB"/>
<stop offset="0.516" stop-color="#A5B4BF"/>
<stop offset="0.782" stop-color="#90A1AC"/>
<stop offset="1" stop-color="#7A8C98"/>
</linearGradient>
<linearGradient id="paint12_linear_701_142" x1="57.1881" y1="52.8606" x2="57.1881" y2="61.891" gradientUnits="userSpaceOnUse">
<stop stop-color="#465A61" stop-opacity="0"/>
<stop offset="0.198" stop-color="#465A61" stop-opacity="0.043"/>
<stop offset="0.403" stop-color="#465A61" stop-opacity="0.171"/>
<stop offset="0.612" stop-color="#465A61" stop-opacity="0.385"/>
<stop offset="0.821" stop-color="#465A61" stop-opacity="0.682"/>
<stop offset="1" stop-color="#465A61"/>
</linearGradient>
<linearGradient id="paint13_linear_701_142" x1="78.3187" y1="48.3111" x2="89.597" y2="48.3111" gradientUnits="userSpaceOnUse">
<stop stop-color="#465A61" stop-opacity="0"/>
<stop offset="0.198" stop-color="#465A61" stop-opacity="0.043"/>
<stop offset="0.403" stop-color="#465A61" stop-opacity="0.171"/>
<stop offset="0.612" stop-color="#465A61" stop-opacity="0.385"/>
<stop offset="0.821" stop-color="#465A61" stop-opacity="0.682"/>
<stop offset="1" stop-color="#465A61"/>
</linearGradient>
<linearGradient id="paint14_linear_701_142" x1="73.921" y1="31.6182" x2="83.1005" y2="31.7687" gradientUnits="userSpaceOnUse">
<stop stop-color="#465A61" stop-opacity="0"/>
<stop offset="0.198" stop-color="#465A61" stop-opacity="0.043"/>
<stop offset="0.403" stop-color="#465A61" stop-opacity="0.171"/>
<stop offset="0.612" stop-color="#465A61" stop-opacity="0.385"/>
<stop offset="0.821" stop-color="#465A61" stop-opacity="0.682"/>
<stop offset="1" stop-color="#465A61"/>
</linearGradient>
<linearGradient id="paint15_linear_701_142" x1="63.3452" y1="27.0377" x2="69.6654" y2="21.6203" gradientUnits="userSpaceOnUse">
<stop stop-color="#465A61" stop-opacity="0"/>
<stop offset="0.198" stop-color="#465A61" stop-opacity="0.043"/>
<stop offset="0.403" stop-color="#465A61" stop-opacity="0.171"/>
<stop offset="0.612" stop-color="#465A61" stop-opacity="0.385"/>
<stop offset="0.821" stop-color="#465A61" stop-opacity="0.682"/>
<stop offset="1" stop-color="#465A61"/>
</linearGradient>
</defs>
</svg>
